<svg width="512" height="512" viewBox="0 0 512 512" fill="none" xmlns="http://www.w3.org/2000/svg">
    <rect width="512" height="512" rx="100" fill="#242C38"/>
    <path fill-rule="evenodd" clip-rule="evenodd" d="M256 106C173.157 106 106 173.157 106 256C106 338.843 173.157 406 256 406C338.843 406 406 338.843 406 256C406 173.157 338.843 106 256 106ZM76 256C76 156.589 156.589 76 256 76C355.411 76 436 156.589 436 256C436 355.411 355.411 436 256 436C156.589 436 76 355.411 76 256Z" fill="#3B82F6"/>
    <path fill-rule="evenodd" clip-rule="evenodd" d="M256 176C212.921 176 178 210.921 178 254C178 297.079 212.921 332 256 332C299.079 332 334 297.079 334 254C334 210.921 299.079 176 256 176ZM148 254C148 194.353 196.353 146 256 146C315.647 146 364 194.353 364 254C364 313.647 315.647 362 256 362C196.353 362 148 313.647 148 254Z" fill="#3B82F6"/>
    <circle cx="256" cy="254" r="48" fill="#3B82F6"/>
</svg>
