<svg width="512" height="512" viewBox="0 0 512 512" fill="none" xmlns="http://www.w3.org/2000/svg">
    <path fill-rule="evenodd" clip-rule="evenodd" d="M256 30C130.736 30 30 130.736 30 256C30 381.264 130.736 482 256 482C381.264 482 482 381.264 482 256C482 130.736 381.264 30 256 30ZM0 256C0 114.615 114.615 0 256 0C397.385 0 512 114.615 512 256C512 397.385 397.385 512 256 512C114.615 512 0 397.385 0 256Z" fill="#3B82F6"/>
    <path fill-rule="evenodd" clip-rule="evenodd" d="M256 100C169.842 100 100 169.842 100 256C100 342.158 169.842 412 256 412C342.158 412 412 342.158 412 256C412 169.842 342.158 100 256 100ZM70 256C70 153.263 153.263 70 256 70C358.737 70 442 153.263 442 256C442 358.737 358.737 442 256 442C153.263 442 70 358.737 70 256Z" fill="#3B82F6"/>
    <circle cx="256" cy="256" r="48" fill="#3B82F6"/>
</svg>
